# AST/ASF file generated using VICON BodyLanguage
# -----------------------------------------------
:version 1.10
:name VICON
:units
  mass 1.0
  length 0.45
  angle deg
:documentation
   .ast/.asf automatically generated from VICON data using
   VICON BodyBuilder and BodyLanguage model FoxedUp or BRILLIANT.MOD
:root
   order TX TY TZ RX RY RZ
   axis XYZ
   position 0 0 0  
   orientation 0 0 0 
:bonedata
  begin
     id 1 
     name lhipjoint
     direction 0.606768 -0.715223 0.346827 
     length 2.41543 
     axis 0 0 0  XYZ
  end
  begin
     id 2 
     name lfemur
     direction 0.34202 -0.939693 0  
     length 7.2778  
     axis 0 0 20  XYZ
    dof rx ry rz
    limits (-160.0 20.0)
           (-70.0 70.0)
           (-60.0 70.0)
  end
  begin
     id 3 
     name ltibia
     direction 0.34202 -0.939693 0   
     length 7.61811   
     axis 0 0 20   XYZ
    dof rx
    limits (-10.0 170.0)
  end
  begin
     id 4 
     name lfoot
     direction 0.0823924 -0.226371 0.97055   
     length 2.33618   
     axis -90 7.62852e-016 20   XYZ
    dof rx rz
    limits (-45.0 90.0)
           (-70.0 20.0)
  end
  begin
     id 5 
     name ltoes
     direction 1.53554e-011 -4.21934e-011 1   
     length 1.17015   
     axis -90 7.62852e-016 20   XYZ
    dof rx
    limits (-90.0 20.0)
  end
  begin
     id 6 
     name rhipjoint
     direction -0.6077 -0.714582 0.346516   
     length 2.4176  
     axis 0 0 0  XYZ 
  end
  begin
     id 7 
     name rfemur
     direction -0.34202 -0.939693 0   
     length 7.28127   
     axis 0 0 -20   XYZ
    dof rx ry rz
    limits (-160.0 20.0)
           (-70.0 70.0)
           (-70.0 60.0)
  end
  begin
     id 8 
     name rtibia
     direction -0.34202 -0.939693 0   
     length 7.77648   
     axis 0 0 -20   XYZ
    dof rx
    limits (-10.0 170.0)
 end
 begin
     id 9 
     name rfoot
     direction -0.0809463 -0.222398 0.97159   
     length 2.37533  
     axis -90 -7.62852e-016 -20   XYZ
    dof rx rz
    limits (-45.0 90.0)
           (-20.0 70.0)
  end
  begin
     id 10 
     name rtoes
     direction -1.53568e-011 -4.21714e-011 1   
     length 1.18972   
     axis -90 -7.62852e-016 -20   XYZ
    dof rx
    limits (-90.0 20.0)
  end
  begin
     id 11 
     name lowerback
     direction 0.010968 0.991932 -0.126297   
     length 2.21698   
     axis 0 0 0   XYZ
    dof rx ry rz
    limits (-20.0 45.0)
           (-30.0 30.0)
           (-30.0 30.0)
  end
  begin
     id 12 
     name upperback
     direction 0.0167007 0.997503 -0.0686276   
     length 2.22371   
     axis 0 0 0   XYZ
    dof rx ry rz
    limits (-20.0 45.0)
           (-30.0 30.0)
           (-30.0 30.0)
  end
  begin
     id 13 
     name thorax
     direction 0.0111721 0.999885 -0.0102878   
     length 2.25242   
     axis 0 0 0   XYZ
    dof rx ry rz
    limits (-20.0 45.0)
           (-30.0 30.0)
           (-30.0 30.0)
  end
  begin
     id 14 
     name lowerneck
     direction -0.0120265 0.990428 0.137508   
     length 1.57674   
     axis 0 0 0   XYZ
    dof rx ry rz
    limits (-20.0 45.0)
           (-30.0 30.0)
           (-30.0 30.0)
  end
  begin
     id 15 
     name upperneck
     direction 0.0175669 0.998907 0.0433089   
     length 1.5618   
     axis 0 0 0   XYZ
    dof rx ry rz
    limits (-20.0 45.0)
           (-30.0 30.0)
           (-30.0 30.0)
  end
  begin
     id 16
     name head
     direction 0.00754609 0.99997 0.00185367  
     length 1.60579  
     axis 0 0 0   XYZ
    dof rx ry rz
    limits (-20.0 45.0)
           (-30.0 30.0)
           (-30.0 30.0)
  end
  begin
     id 17 
     name lclavicle
     direction 0.885866 0.429166 -0.176231  
     length 3.44967  
     axis 0 0 0   XYZ
    dof ry rz
    limits (-20.0 10.0)
           (0.0 20.0)
  end
  begin
     id 18 
     name lhumerus
     direction 1 -4.48973e-011 -1.90255e-027   
     length 5.20607   
     axis 180 -30 -90   XYZ
    dof rx ry rz
    limits (-60.0 90.0)
           (-90.0 90.0)
           (-90.0 90.0)
  end
  begin
     id 19
     name lradius
     direction 1 -4.48956e-011 9.87925e-027   
     length 3.39961   
     axis 180 -30 -90   XYZ
    dof rx
    limits (-10.0 170.0)
  end
  begin
     id 20
     name lwrist
     direction 1 -4.48985e-011 1.73247e-026   
     length 1.6998   
     axis -9.60847e-015 90 90   XYZ
    dof ry
    limits (-180.0 0.0)
 end
  begin
     id 21 
     name lhand
     direction 1 -4.48798e-011 3.46119e-026   
     length 0.519693   
     axis -2.21073e-014 90 90   XYZ
    dof rx rz
    limits (-90.0 90.0)
           (-45.0 45.0)
  end
  begin
     id 22 
     name lfingers
     direction 1 -4.48938e-011 6.92797e-026   
     length 0.41899   
     axis -4.42155e-014 90 90   XYZ
    dof rx
    limits (0.0 90.0)
  end
  begin
     id 23
     name lthumb
     direction 0.707107 -6.34952e-011 0.707107   
     length 0.601588   
     axis -90 45 6.0103e-014   XYZ
    dof rx rz
    limits (-45.0 45.0)
           (-45.0 45.0)
  end
  begin
     id 24 
     name rclavicle
     direction -0.866736 0.456792 -0.200276   
     length 3.45032  
     axis 0 0 0   XYZ 
    dof ry rz
    limits (-10.0 20.0)
           (-20.0 0.0)
  end
  begin
     id 25 
     name rhumerus
     direction -1 -4.4897e-011 8.65094e-028  
     length 5.32214   
     axis 180 30 90   XYZ
    dof rx ry rz
    limits (-90.0 60.0)
           (-90.0 90.0)
           (-90.0 90.0)
  end
  begin
     id 26 
     name rradius
     direction -1 -4.48987e-011 1.08427e-026   
     length 3.51208   
     axis 180 30 90   XYZ
    dof rx
    limits (-10.0 170.0)
  end
  begin
     id 27 
     name rwrist
     direction -1 -4.48961e-011 1.73222e-026   
     length 1.75604   
     axis -9.60847e-015 -90 -90   XYZ
    dof ry
    limits (-180.0 0.0)
  end
  begin
     id 28
     name rhand
     direction -1 -4.48895e-011 3.46314e-026   
     length 0.586681   
     axis -2.21073e-014 -90 -90   XYZ
    dof rx rz
    limits (-90.0 90.0)
           (-45.0 45.0)
  end
  begin
     id 29
     name rfingers
     direction -1 -4.48968e-011 6.92916e-026   
     length 0.472997   
     axis -4.42155e-014 -90 -90   XYZ
    dof rx
    limits (0.0 90.0)
  end
  begin
     id 30
     name rthumb
     direction -0.707107 -6.34848e-011 0.707107   
     length 0.679133   
     axis -90 -45 -6.0103e-014   XYZ
    dof rx rz
    limits (-45.0 45.0)
           (-45.0 45.0)
  end
:hierarchy
  begin
    root lhipjoint rhipjoint lowerback
    lhipjoint lfemur
    lfemur ltibia
    ltibia lfoot
    lfoot ltoes
    rhipjoint rfemur
    rfemur rtibia
    rtibia rfoot
    rfoot rtoes
    lowerback upperback
    upperback thorax
    thorax lowerneck lclavicle rclavicle
    lowerneck upperneck
    upperneck head
    lclavicle lhumerus
    lhumerus lradius
    lradius lwrist
    lwrist lhand lthumb
    lhand lfingers
    rclavicle rhumerus
    rhumerus rradius
    rradius rwrist
    rwrist rhand rthumb
    rhand rfingers
  end

#!OML:ASF H:\Dans Jumps\Project 1\Capture day 1\Session 1\subject.ASF
:FULLY-SPECIFIED
:DEGREES
45
root 0.208895 17.669 -13.5602 5.38938 -0.63283 -1.14582
lowerback -5.83798 -0.439576 -0.670919
upperback 2.33647 -0.601589 1.26994
thorax 5.72711 -0.34731 1.6335
lowerneck -13.6618 -0.0316744 -2.46745
upperneck 12.3659 -0.386789 5.55473
head 6.00426 0.136104 2.13479
rclavicle -5.76476e-015 1.98785e-015
rhumerus -23.0552 -7.48997 -87.4516
rradius 27.0915
rwrist 29.5352
rhand -18.1337 -26.256
rfingers 7.12502
rthumb 8.14132 -56.0792
lclavicle -5.76476e-015 1.98785e-015
lhumerus -21.0364 0.888365 88.9237
lradius 17.5848
lwrist -1.92093
lhand -24.9827 -2.65051
lfingers 7.12502
lthumb 1.52832 27.3238
rfemur -8.55072 -4.64995 19.5974
rtibia 18.2224
rfoot -13.6194 -5.62707
rtoes 14.7393
lfemur -5.10338 7.01785 -17.2601
ltibia 11.9692
lfoot -9.00774 7.36231
ltoes 4.66451
46
root 0.216834 17.669 -13.557 5.39718 -0.644157 -1.14008
lowerback -5.84452 -0.444022 -0.6595
upperback 2.34188 -0.608331 1.26673
thorax 5.73658 -0.350239 1.62299
lowerneck -13.6523 -0.0334365 -2.46279
upperneck 12.3537 -0.387207 5.53796
head 5.99876 0.13454 2.12845
rclavicle -4.72114e-016 9.14409e-015
rhumerus -23.0295 -7.54007 -87.4014
rradius 27.0734
rwrist 29.5669
rhand -18.1542 -26.2598
rfingers 7.12502
rthumb 8.1215 -56.0837
lclavicle -4.72114e-016 9.14409e-015
lhumerus -21.1303 0.579008 89.2134
lradius 17.6504
lwrist -1.78276
lhand -24.9062 -2.58633
lfingers 7.12502
lthumb 1.60211 27.3874
rfemur -8.54469 -4.62607 19.5623
rtibia 18.2141
rfoot -13.6199 -5.6497
rtoes 14.7043
lfemur -5.10545 7.03002 -17.2958
ltibia 11.9804
lfoot -9.03089 7.36048
ltoes 4.70715
47
root 0.224577 17.6691 -13.554 5.40673 -0.655203 -1.13554
lowerback -5.85135 -0.44703 -0.647842
upperback 2.34641 -0.613169 1.26355
thorax 5.74523 -0.352206 1.61257
lowerneck -13.637 -0.0389618 -2.46032
upperneck 12.3393 -0.392831 5.5249
head 5.99182 0.130543 2.12312
rclavicle -6.16232e-015 1.05356e-014
rhumerus -23.002 -7.61995 -87.3383
rradius 27.0393
rwrist 29.6189
rhand -18.1806 -26.2663
rfingers 7.12502
rthumb 8.09599 -56.0913
lclavicle -6.16232e-015 1.05356e-014
lhumerus -21.2185 0.258433 89.5047
lradius 17.711
lwrist -1.64568
lhand -24.831 -2.54823
lfingers 7.12502
lthumb 1.67478 27.4249
rfemur -8.54139 -4.60641 19.5293
rtibia 18.2059
rfoot -13.6189 -5.6685
rtoes 14.6668
lfemur -5.11017 7.04246 -17.33
ltibia 11.992
lfoot -9.05284 7.3581
ltoes 4.74829
48
root 0.232151 17.6692 -13.5512 5.41669 -0.663605 -1.12928
lowerback -5.85808 -0.450124 -0.638307
upperback 2.35017 -0.617904 1.25967
thorax 5.75302 -0.354177 1.60263
lowerneck -13.6206 -0.0452842 -2.45744
upperneck 12.3262 -0.400167 5.515
head 5.98518 0.125984 2.1186
rclavicle -4.5472e-015 6.16232e-015
rhumerus -22.9751 -7.72101 -87.2643
rradius 26.9924
rwrist 29.6786
rhand -18.2012 -26.288
rfingers 7.12502
rthumb 8.07617 -56.1137
lclavicle -4.5472e-015 6.16232e-015
lhumerus -21.3003 -0.066089 89.7953
lradius 17.758
lwrist -1.52333
lhand -24.7768 -2.56678
lfingers 7.12502
lthumb 1.72715 27.406
rfemur -8.53969 -4.59526 19.4949
rtibia 18.199
rfoot -13.6174 -5.68164
rtoes 14.62
lfemur -5.1163 7.05683 -17.3655
ltibia 12.004
lfoot -9.07488 7.35058
ltoes 4.79362
49
root 0.2395 17.6693 -13.5485 5.42668 -0.670432 -1.12467
lowerback -5.86069 -0.453182 -0.629595
upperback 2.35148 -0.622618 1.25785
thorax 5.75592 -0.356168 1.59531
lowerneck -13.6034 -0.0527994 -2.45898
upperneck 12.3147 -0.408978 5.50956
head 5.97899 0.120855 2.11611
rclavicle 5.64051e-015 6.95746e-015
rhumerus -22.9535 -7.8439 -87.1762
rradius 26.9333
rwrist 29.7594
rhand -18.2273 -26.3113
rfingers 7.12502
rthumb 8.05095 -56.1379
lclavicle 5.64051e-015 6.95746e-015
lhumerus -21.3795 -0.411059 90.0917
lradius 17.7964
lwrist -1.38762
lhand -24.7475 -2.63138
lfingers 7.12502
lthumb 1.75541 27.3411
rfemur -8.53916 -4.58556 19.4635
rtibia 18.1933
rfoot -13.6161 -5.69365
rtoes 14.5723
lfemur -5.12429 7.07363 -17.3984
ltibia 12.017
lfoot -9.09462 7.33973
ltoes 4.82907
50
root 0.246668 17.6692 -13.5459 5.43553 -0.674517 -1.11783
lowerback -5.85803 -0.457725 -0.623999
upperback 2.35039 -0.629074 1.25664
thorax 5.75339 -0.359105 1.59022
lowerneck -13.5886 -0.0594692 -2.46373
upperneck 12.3073 -0.416565 5.50695
head 5.97446 0.116465 2.11521
rclavicle 1.81391e-015 6.16232e-015
rhumerus -22.9365 -7.98221 -87.0758
rradius 26.8605
rwrist 29.8584
rhand -18.2488 -26.3399
rfingers 7.12502
rthumb 8.03017 -56.1673
lclavicle 1.81391e-015 6.16232e-015
lhumerus -21.4576 -0.782635 90.3939
lradius 17.8278
lwrist -1.23059
lhand -24.7436 -2.72422
lfingers 7.12502
lthumb 1.75921 27.2483
rfemur -8.53843 -4.58004 19.4305
rtibia 18.19
rfoot -13.6154 -5.70466
rtoes 14.517
lfemur -5.13195 7.09266 -17.4327
ltibia 12.0301
lfoot -9.11245 7.32449
ltoes 4.85508
51
root 0.2537 17.6692 -13.5433 5.44429 -0.676156 -1.11065
lowerback -5.85092 -0.463176 -0.61859
upperback 2.3466 -0.63677 1.25662
thorax 5.74553 -0.362643 1.58635
lowerneck -13.5773 -0.0638205 -2.47226
upperneck 12.3041 -0.420788 5.507
head 5.97172 0.113825 2.11615
rclavicle -1.76421e-015 -1.0138e-014
rhumerus -22.9262 -8.13499 -86.9624
rradius 26.7775
rwrist 29.9779
rhand -18.2665 -26.3644
rfingers 7.12502
rthumb 8.01315 -56.1925
lclavicle -1.76421e-015 -1.0138e-014
lhumerus -21.5378 -1.18152 90.702
lradius 17.8638
lwrist -1.04362
lhand -24.7473 -2.82481
lfingers 7.12502
lthumb 1.75563 27.1477
rfemur -8.53827 -4.5772 19.3978
rtibia 18.1887
rfoot -13.6158 -5.71443
rtoes 14.4661
lfemur -5.14022 7.11109 -17.4668
ltibia 12.0433
lfoot -9.13006 7.30806
ltoes 4.87764
52
root 0.260605 17.6691 -13.5409 5.45249 -0.677921 -1.10391
lowerback -5.84084 -0.46856 -0.611323
upperback 2.34144 -0.644495 1.25626
thorax 5.7345 -0.366097 1.5811
lowerneck -13.5693 -0.0661327 -2.48036
upperneck 12.3048 -0.422689 5.50867
head 5.97065 0.112542 2.1178
rclavicle 6.26172e-015 9.34288e-015
rhumerus -22.9204 -8.30192 -86.84
rradius 26.6858
rwrist 30.1147
rhand -18.2736 -26.3938
rfingers 7.12502
rthumb 8.00628 -56.2222
lclavicle 6.26172e-015 9.34288e-015
lhumerus -21.6227 -1.60709 91.0128
lradius 17.9146
lwrist -0.825647
lhand -24.7592 -2.92604
lfingers 7.12502
lthumb 1.74414 27.0466
rfemur -8.53853 -4.57233 19.3663
rtibia 18.1894
rfoot -13.6179 -5.72549
rtoes 14.4228
lfemur -5.14799 7.1267 -17.4999
ltibia 12.0555
lfoot -9.14543 7.29541
ltoes 4.89104
53
root 0.267505 17.6688 -13.5382 5.45786 -0.682436 -1.09868
lowerback -5.83232 -0.472712 -0.599804
upperback 2.33908 -0.650931 1.25566
thorax 5.72721 -0.368788 1.57334
lowerneck -13.5651 -0.0679865 -2.48963
upperneck 12.3045 -0.423906 5.51205
head 5.96991 0.111713 2.12027
rclavicle -5.31749e-015 9.93923e-015
rhumerus -22.9125 -8.48244 -86.709
rradius 26.5845
rwrist 30.267
rhand -18.2775 -26.42
rfingers 7.12502
rthumb 8.0025 -56.2485
lclavicle -5.31749e-015 9.93923e-015
lhumerus -21.7063 -2.04855 91.3225
lradius 17.9831
lwrist -0.590183
lhand -24.7602 -3.00181
lfingers 7.12502
lthumb 1.74314 26.9708
rfemur -8.53515 -4.56882 19.3357
rtibia 18.1902
rfoot -13.6205 -5.73245
rtoes 14.3866
lfemur -5.15005 7.13851 -17.5312
ltibia 12.0665
lfoot -9.1621 7.28865
ltoes 4.9096
54
root 0.274322 17.6686 -13.5355 5.46188 -0.692594 -1.09476
lowerback -5.82774 -0.475161 -0.585565
upperback 2.34063 -0.655328 1.25477
thorax 5.72617 -0.37042 1.56395
lowerneck -13.5687 -0.0685117 -2.49372
upperneck 12.3041 -0.423474 5.51024
head 5.97038 0.111628 2.12042
rclavicle -5.61567e-015 -5.1684e-015
rhumerus -22.8993 -8.6749 -86.5721
rradius 26.4745
rwrist 30.4271
rhand -18.2844 -26.4383
rfingers 7.12502
rthumb 7.99585 -56.2671
lclavicle -5.61567e-015 -5.1684e-015
lhumerus -21.7849 -2.49203 91.6265
lradius 18.0686
lwrist -0.35031
lhand -24.7631 -3.07057
lfingers 7.12502
lthumb 1.74036 26.9021
rfemur -8.53076 -4.56152 19.3063
rtibia 18.1906
rfoot -13.6227 -5.73728
rtoes 14.3547
lfemur -5.1488 7.14618 -17.5607
ltibia 12.0768
lfoot -9.17809 7.29151
ltoes 4.93073
55
root 0.280896 17.6683 -13.5323 5.46577 -0.704762 -1.09219
lowerback -5.82608 -0.477594 -0.569001
upperback 2.34511 -0.659906 1.2536
thorax 5.72985 -0.37209 1.55294
lowerneck -13.59 -0.0713121 -2.50285
upperneck 12.3095 -0.425609 5.51164
head 5.97578 0.110611 2.12235
rclavicle 6.65929e-015 -9.54166e-015
rhumerus -22.8824 -8.88181 -86.4302
rradius 26.3564
rwrist 30.5864
rhand -18.3069 -26.4281
rfingers 7.12502
rthumb 7.97413 -56.2577
lclavicle 6.65929e-015 -9.54166e-015
lhumerus -21.8513 -2.9325 91.9223
lradius 18.153
lwrist -0.105229
lhand -24.7595 -3.14833
lfingers 7.12502
lthumb 1.74384 26.8243
rfemur -8.52398 -4.54956 19.2793
rtibia 18.1899
rfoot -13.6254 -5.74624
rtoes 14.3162
lfemur -5.14443 7.15325 -17.5875
ltibia 12.0857
lfoot -9.19512 7.29707
ltoes 4.94926
56
root 0.28723 17.6682 -13.5294 5.47142 -0.718605 -1.08823
lowerback -5.82945 -0.479593 -0.555421
upperback 2.35253 -0.663692 1.25246
thorax 5.73951 -0.373523 1.54369
lowerneck -13.6133 -0.073573 -2.5102
upperneck 12.31 -0.427159 5.51319
head 5.97997 0.109953 2.12405
rclavicle -8.19987e-015 0
rhumerus -22.8572 -9.10131 -86.2813
rradius 26.2292
rwrist 30.7465
rhand -18.3166 -26.4153
rfingers 7.12502
rthumb 7.96482 -56.2452
lclavicle -8.19987e-015 0
lhumerus -21.911 -3.36375 92.2094
lradius 18.2444
lwrist 0.123673
lhand -24.774 -3.23178
lfingers 7.12502
lthumb 1.7298 26.741
rfemur -8.52032 -4.53516 19.252
rtibia 18.1886
rfoot -13.6262 -5.7574
rtoes 14.2725
lfemur -5.142 7.16076 -17.6155
ltibia 12.093
lfoot -9.21 7.30287
ltoes 4.96394
